<?xml version="1.0" encoding="UTF-8" standalone="no"?>
<svg
   width="360.00061"
   height="168.56"
   viewBox="0 0 360.00061 168.56001"
   version="1.1"
   id="svg916"
   sodipodi:docname="outer-circle-mobile.svg"
   inkscape:version="1.1.1 (c3084ef, 2021-09-22)"
   xmlns:inkscape="http://www.inkscape.org/namespaces/inkscape"
   xmlns:sodipodi="http://sodipodi.sourceforge.net/DTD/sodipodi-0.dtd"
   xmlns="http://www.w3.org/2000/svg"
   xmlns:svg="http://www.w3.org/2000/svg">
  <defs
     id="defs920" />
  <sodipodi:namedview
     id="namedview918"
     pagecolor="#ffffff"
     bordercolor="#666666"
     borderopacity="1.0"
     inkscape:pageshadow="2"
     inkscape:pageopacity="0.0"
     inkscape:pagecheckerboard="0"
     showgrid="false"
     inkscape:zoom="0.31494339"
     inkscape:cx="217.4994"
     inkscape:cy="341.33118"
     inkscape:window-width="1296"
     inkscape:window-height="847"
     inkscape:window-x="0"
     inkscape:window-y="25"
     inkscape:window-maximized="0"
     inkscape:current-layer="svg916"
     fit-margin-top="0"
     fit-margin-left="0"
     fit-margin-right="0"
     fit-margin-bottom="0" />
  <g
     stroke-width="2"
     stroke="#659CC8"
     fill="none"
     fill-rule="evenodd"
     id="g914"
     style="stroke:#f7f1e3;stroke-opacity:1"
     transform="matrix(0.73469805,0,0,0.73469805,-0.00149083,-0.02017938)">
    <path
       d="M 58.933,0.562 C 37.441,34.543 25,74.82 25,118 c 0,35.607 8.46,69.239 23.478,98.994 M 435.015,228.95 C 454.075,196.377 465,158.464 465,118 465,75.1 452.72,35.066 431.484,1.225"
       opacity="0.164"
       stroke-dasharray="31, 7, 8"
       id="path908"
       style="stroke:#f7f1e3;stroke-opacity:1" />
    <path
       d="M 467.113,194.948 C 475.463,170.84 480,144.95 480,118 480,96 476.977,74.707 471.324,54.512 M 27.826,28.06 C 16.34,55.764 10,86.141 10,118 c 0,22.158 3.067,43.599 8.798,63.923"
       opacity="0.12"
       stroke-dasharray="3, 8, 34"
       id="path910"
       style="stroke:#f7f1e3;stroke-opacity:1" />
    <path
       d="M 5.892,69.144 A 245.116,245.116 0 0 0 1,118 c 0,13.187 1.046,26.13 3.06,38.749 M 488.17,138.262 C 488.72,131.581 489,124.823 489,118 c 0,-12.898 -1,-25.562 -2.929,-37.92"
       opacity="0.08"
       stroke-dasharray="2, 6, 8"
       id="path912"
       style="stroke:#f7f1e3;stroke-opacity:1" />
  </g>
</svg>
