<?xml version="1.0" encoding="UTF-8" standalone="no"?>
<svg
   width="490"
   height="230"
   viewBox="0 0 490 230"
   version="1.1"
   id="svg916"
   sodipodi:docname="outer-circle.svg"
   inkscape:version="1.1.1 (c3084ef, 2021-09-22)"
   xmlns:inkscape="http://www.inkscape.org/namespaces/inkscape"
   xmlns:sodipodi="http://sodipodi.sourceforge.net/DTD/sodipodi-0.dtd"
   xmlns="http://www.w3.org/2000/svg"
   xmlns:svg="http://www.w3.org/2000/svg">
  <defs
     id="defs920" />
  <sodipodi:namedview
     id="namedview918"
     pagecolor="#ffffff"
     bordercolor="#666666"
     borderopacity="1.0"
     inkscape:pageshadow="2"
     inkscape:pageopacity="0.0"
     inkscape:pagecheckerboard="0"
     showgrid="false"
     inkscape:zoom="2.3"
     inkscape:cx="159.34783"
     inkscape:cy="120.21739"
     inkscape:window-width="1296"
     inkscape:window-height="969"
     inkscape:window-x="0"
     inkscape:window-y="25"
     inkscape:window-maximized="0"
     inkscape:current-layer="svg916" />
  <g
     stroke-width="2"
     stroke="#659CC8"
     fill="none"
     fill-rule="evenodd"
     id="g914"
     style="stroke:#f7f1e3;stroke-opacity:1">
    <path
       d="M58.933.562C37.441 34.543 25 74.82 25 118c0 35.607 8.46 69.239 23.478 98.994m386.537 11.956C454.075 196.377 465 158.464 465 118c0-42.9-12.28-82.934-33.516-116.775"
       opacity=".164"
       stroke-dasharray="31,7,8"
       id="path908"
       style="stroke:#f7f1e3;stroke-opacity:1" />
    <path
       d="M467.113 194.948C475.463 170.84 480 144.95 480 118c0-22-3.023-43.293-8.676-63.488M27.826 28.06C16.34 55.764 10 86.141 10 118c0 22.158 3.067 43.599 8.798 63.923"
       opacity=".12"
       stroke-dasharray="3,8,34"
       id="path910"
       style="stroke:#f7f1e3;stroke-opacity:1" />
    <path
       d="M5.892 69.144A245.116 245.116 0 0 0 1 118c0 13.187 1.046 26.13 3.06 38.749m484.11-18.487c.55-6.681.83-13.439.83-20.262 0-12.898-1-25.562-2.929-37.92"
       opacity=".08"
       stroke-dasharray="2,6,8"
       id="path912"
       style="stroke:#f7f1e3;stroke-opacity:1" />
  </g>
</svg>
